<?xml version="1.0" encoding="UTF-8"?>
<svg version="1.1" xmlns="http://www.w3.org/2000/svg" width="86" height="86">
<path d="M0 0 C1.92103294 -0.00786278 1.92103294 -0.00786278 3.88087463 -0.0158844 C6.58320011 -0.02478402 9.28522957 -0.02242889 11.98754883 -0.01245117 C15.43178817 -0.00096631 18.87500144 -0.02117975 22.3191061 -0.05036831 C25.62945635 -0.07324292 28.93957285 -0.06625879 32.25 -0.0625 C33.47730331 -0.07373398 34.70460663 -0.08496796 35.96910095 -0.09654236 C43.0206952 -0.03941873 47.71333865 0.60041322 53.69140625 4.43359375 C58.3145417 9.17839066 59.93257383 13.73218313 59.98193359 20.2902832 C59.9946933 21.44530838 60.007453 22.60033356 60.02059937 23.7903595 C60.02282501 25.03000961 60.02505066 26.26965973 60.02734375 27.546875 C60.03732895 29.47215279 60.03732895 29.47215279 60.04751587 31.43632507 C60.05946728 34.15053673 60.06319901 36.86462133 60.06201172 39.57885742 C60.06180885 43.03880113 60.08908581 46.49792051 60.12355614 49.95766926 C60.15128846 53.279082 60.14997744 56.6003482 60.15234375 59.921875 C60.16671478 61.15545242 60.18108582 62.38902985 60.19589233 63.6599884 C60.15450858 71.49171103 59.45903065 76.93588008 54.3765564 83.00323486 C48.79384279 88.06965833 41.33709653 87.13820702 34.25390625 87.0625 C32.84578264 87.06332996 31.43765914 87.06579413 30.02954102 87.06980896 C27.08742897 87.07265776 24.14608208 87.05805778 21.20410156 87.03051758 C17.44807795 86.9964348 13.69342123 87.00246089 9.93733215 87.02118015 C7.03231576 87.03178953 4.12761302 87.02277703 1.22262573 87.00779533 C-0.16154039 87.00264181 -1.54573965 87.0030607 -2.92990112 87.00934029 C-16.83737789 87.04875946 -16.83737789 87.04875946 -22.30859375 82.43359375 C-27.62120689 76.1249332 -26.9284531 68.94519465 -26.91015625 61.03125 C-26.91794357 59.6255188 -26.92661564 58.21979225 -26.93612671 56.81407166 C-26.95099726 53.87629908 -26.95050849 50.93900743 -26.93994141 48.0012207 C-26.92835279 44.25392938 -26.96222942 40.50861558 -27.00863075 36.76165104 C-27.03822986 33.86088237 -27.03983261 30.96058343 -27.0336113 28.05969048 C-27.03463139 26.67909259 -27.04498756 25.29846621 -27.06523514 23.91801643 C-27.16001735 16.55357099 -27.21790196 10.53007088 -22.03184509 4.90136719 C-15.47093703 -0.68686381 -8.24225226 -0.01968253 0 0 Z " fill="#FF6A0D" transform="translate(26.30859375,-0.43359375)"/>
<path d="M0 0 C1.92103294 -0.00786278 1.92103294 -0.00786278 3.88087463 -0.0158844 C6.58320011 -0.02478402 9.28522957 -0.02242889 11.98754883 -0.01245117 C15.43178817 -0.00096631 18.87500144 -0.02117975 22.3191061 -0.05036831 C25.62945635 -0.07324292 28.93957285 -0.06625879 32.25 -0.0625 C33.47730331 -0.07373398 34.70460663 -0.08496796 35.96910095 -0.09654236 C43.0194203 -0.03942906 47.7177243 0.59365269 53.69140625 4.43359375 C56.26807209 7.1423963 57.51245553 8.89674158 58.69140625 12.43359375 C57.60859375 11.96953125 57.60859375 11.96953125 56.50390625 11.49609375 C51.4847071 9.47631974 51.4847071 9.47631974 46.37890625 10.37109375 C45.82203125 10.72171875 45.26515625 11.07234375 44.69140625 11.43359375 C44.69140625 10.11359375 44.69140625 8.79359375 44.69140625 7.43359375 C43.70140625 7.76359375 42.71140625 8.09359375 41.69140625 8.43359375 C40.47270696 10.93806891 40.47270696 10.93806891 39.69140625 13.43359375 C39.03140625 13.43359375 38.37140625 13.43359375 37.69140625 13.43359375 C38.02140625 11.78359375 38.35140625 10.13359375 38.69140625 8.43359375 C37.99015625 8.78421875 37.28890625 9.13484375 36.56640625 9.49609375 C33.18872039 10.59751305 31.11060032 10.22875516 27.69140625 9.43359375 C27.36140625 10.42359375 27.03140625 11.41359375 26.69140625 12.43359375 C21.81640625 10.55859375 21.81640625 10.55859375 20.69140625 9.43359375 C16.82018637 8.9834519 14.95762956 9.28743193 11.50390625 11.18359375 C7.94495496 14.03075478 6.12958212 16.11906613 4.69140625 20.43359375 C5.35140625 20.76359375 6.01140625 21.09359375 6.69140625 21.43359375 C5.70140625 21.76359375 4.71140625 22.09359375 3.69140625 22.43359375 C3.64242188 23.06007813 3.5934375 23.6865625 3.54296875 24.33203125 C3.46820312 25.14929688 3.3934375 25.9665625 3.31640625 26.80859375 C3.24679688 27.62070312 3.1771875 28.4328125 3.10546875 29.26953125 C2.69140625 31.43359375 2.69140625 31.43359375 0.69140625 33.43359375 C0.59836969 36.13165402 0.59728998 38.74186835 0.69140625 41.43359375 C0.78552252 44.12531915 0.78444281 46.73553348 0.69140625 49.43359375 C0.03140625 50.09359375 -0.62859375 50.75359375 -1.30859375 51.43359375 C-1.52584651 53.53612128 -1.52584651 53.53612128 -1.35546875 55.93359375 C-1.31292969 56.82046875 -1.27039063 57.70734375 -1.2265625 58.62109375 C-1.17113281 59.54921875 -1.11570312 60.47734375 -1.05859375 61.43359375 C-1.01863281 62.36171875 -0.97867187 63.28984375 -0.9375 64.24609375 C-0.94569333 69.36905147 -0.94569333 69.36905147 1.69140625 73.43359375 C1.8515625 75.45703125 1.8515625 75.45703125 1.75390625 77.80859375 C1.63384568 80.93016862 1.88329762 83.4220924 2.69140625 86.43359375 C-0.16380156 86.54236357 -3.01479936 86.62125841 -5.87109375 86.68359375 C-6.67095703 86.71710938 -7.47082031 86.750625 -8.29492188 86.78515625 C-14.18584065 86.88133452 -17.58747265 86.05175825 -22.30859375 82.43359375 C-27.43678168 75.90148684 -26.92868426 69.04517834 -26.91015625 61.03125 C-26.91794357 59.6255188 -26.92661564 58.21979225 -26.93612671 56.81407166 C-26.95099726 53.87629908 -26.95050849 50.93900743 -26.93994141 48.0012207 C-26.92835279 44.25392938 -26.96222942 40.50861558 -27.00863075 36.76165104 C-27.03822986 33.86088237 -27.03983261 30.96058343 -27.0336113 28.05969048 C-27.03463139 26.67909259 -27.04498756 25.29846621 -27.06523514 23.91801643 C-27.16001735 16.55357099 -27.21790196 10.53007088 -22.03184509 4.90136719 C-15.47093703 -0.68686381 -8.24225226 -0.01968253 0 0 Z " fill="#FF6201" transform="translate(26.30859375,-0.43359375)"/>
<path d="M0 0 C3.41778425 0.55800559 5.36085382 1.33868305 8.0625 3.5 C8.69921875 5.609375 8.69921875 5.609375 9.0625 7.5 C10.68740954 7.52698189 12.31244633 7.54638757 13.9375 7.5625 C14.84242187 7.57410156 15.74734375 7.58570313 16.6796875 7.59765625 C19.0793585 7.66249257 19.0793585 7.66249257 21.0625 6.5 C23.06210012 6.460008 25.06297242 6.45653201 27.0625 6.5 C27.206875 5.695625 27.35125 4.89125 27.5 4.0625 C28.0625 1.5 28.0625 1.5 29.0625 0.5 C36.02488651 -0.07068742 36.02488651 -0.07068742 39.5625 1.875 C41.89434827 5.95573447 41.71702399 9.91080881 41.0625 14.5 C40.08060813 16.17739862 39.08116229 17.84467377 38.0625 19.5 C38.07089065 20.91801985 38.14049662 22.33618965 38.25 23.75 C38.51843301 29.66546828 35.55281398 32.91896291 32.0625 37.5 C35.3625 37.83 38.6625 38.16 42.0625 38.5 C42.0625 42.13 42.0625 45.76 42.0625 49.5 C40.721875 48.84 39.38125 48.18 38 47.5 C33.78190059 45.60548587 30.69678893 45.41417983 26.0625 45.5 C23.59144883 44.68926219 21.40717807 43.64841375 19.0625 42.5 C19.9375 37.75 19.9375 37.75 21.0625 35.5 C22.0525 35.5 23.0425 35.5 24.0625 35.5 C24.0625 34.51 24.0625 33.52 24.0625 32.5 C20.4325 32.5 16.8025 32.5 13.0625 32.5 C12.7325 33.49 12.4025 34.48 12.0625 35.5 C13.0525 35.5 14.0425 35.5 15.0625 35.5 C17.0625 38.5 17.0625 38.5 17.0625 42.5 C9.8655303 45.53030303 9.8655303 45.53030303 5.75 45.375 C0.24374562 45.56165269 -4.08080871 48.0409158 -8.9375 50.5 C-8.9375 49.18 -8.9375 47.86 -8.9375 46.5 C-7.31500059 45.66180842 -5.68941503 44.8295884 -4.0625 44 C-3.15757813 43.5359375 -2.25265625 43.071875 -1.3203125 42.59375 C1.0625 41.5 1.0625 41.5 3.0625 41.5 C3.0625 40.84 3.0625 40.18 3.0625 39.5 C-1.5575 40.49 -6.1775 41.48 -10.9375 42.5 C-10.9375 41.51 -10.9375 40.52 -10.9375 39.5 C-6.31552694 37.28145293 -3.16925837 36.11718841 2.0625 36.5 C1.44375 35.613125 0.825 34.72625 0.1875 33.8125 C-1.59147741 31.03938816 -2.84833602 28.5859646 -3.9375 25.5 C-3.2775 25.5 -2.6175 25.5 -1.9375 25.5 C-1.9375 22.2 -1.9375 18.9 -1.9375 15.5 C-3.2575 14.84 -4.5775 14.18 -5.9375 13.5 C-6.9375 12.5 -6.9375 12.5 -7.25 9.25 C-6.81580486 4.03965834 -5.4172228 0.92208048 0 0 Z " fill="#FFF6F1" transform="translate(43.9375,17.5)"/>
<path d="M0 0 C0.99 0 1.98 0 3 0 C3.495 1.485 3.495 1.485 4 3 C4.99 2.34 5.98 1.68 7 1 C10.93584771 1.31072482 13.8420193 2.65407148 17 5 C17 5.99 17 6.98 17 8 C16.19175781 7.88140625 15.38351563 7.7628125 14.55078125 7.640625 C8.05997199 6.58152514 8.05997199 6.58152514 2.25 8.875 C1.5075 9.57625 0.765 10.2775 0 11 C-2.69593265 11.64213141 -5.22024099 11.81154176 -8 12 C-8 10.35 -8 8.7 -8 7 C-11.27773504 7.75150023 -11.27773504 7.75150023 -13 11 C-17.05281712 9.77472971 -20.44360764 8.30119506 -24 6 C-25.423125 6.99 -25.423125 6.99 -26.875 8 C-30 10 -30 10 -32 10 C-32.33 10.99 -32.66 11.98 -33 13 C-34.32 13 -35.64 13 -37 13 C-36.9158797 10.13990965 -36.43181261 8.45351173 -34.4453125 6.3671875 C-28.37900164 1.15670473 -28.37900164 1.15670473 -24.25 0.6875 C-20.22945347 1.07409101 -18.17324483 2.58228965 -15 5 C-14.67 3.68 -14.34 2.36 -14 1 C-12.6696875 1.2784375 -12.6696875 1.2784375 -11.3125 1.5625 C-8.14821189 1.98042484 -6.05160358 1.80777742 -3 1 C-3.33 2.65 -3.66 4.3 -4 6 C-1.2160817 4.60804085 -1.02101003 2.84424221 0 0 Z " fill="#FFF5EF" transform="translate(68,7)"/>
<path d="M0 0 C1.37478516 0.01740234 1.37478516 0.01740234 2.77734375 0.03515625 C3.69644531 0.04417969 4.61554688 0.05320313 5.5625 0.0625 C6.27277344 0.07410156 6.98304687 0.08570313 7.71484375 0.09765625 C6.3828125 2.08203125 6.3828125 2.08203125 4.71484375 4.09765625 C2.02734375 4.34765625 2.02734375 4.34765625 -0.28515625 4.09765625 C0.7775809 8.49626214 0.7775809 8.49626214 3.83984375 11.59765625 C4.45859375 12.09265625 5.07734375 12.58765625 5.71484375 13.09765625 C5.96484375 16.28515625 5.96484375 16.28515625 5.71484375 19.09765625 C6.78734375 19.07703125 7.85984375 19.05640625 8.96484375 19.03515625 C12.71484375 19.09765625 12.71484375 19.09765625 16.71484375 20.09765625 C16.71484375 23.72765625 16.71484375 27.35765625 16.71484375 31.09765625 C15.37421875 30.43765625 14.03359375 29.77765625 12.65234375 29.09765625 C8.43424434 27.20314212 5.34913268 27.01183608 0.71484375 27.09765625 C-1.75620742 26.28691844 -3.94047818 25.24607 -6.28515625 24.09765625 C-5.41015625 19.34765625 -5.41015625 19.34765625 -4.28515625 17.09765625 C-3.29515625 17.09765625 -2.30515625 17.09765625 -1.28515625 17.09765625 C-1.28515625 16.43765625 -1.28515625 15.77765625 -1.28515625 15.09765625 C-0.62515625 14.76765625 0.03484375 14.43765625 0.71484375 14.09765625 C0.2353125 13.70835938 -0.24421875 13.3190625 -0.73828125 12.91796875 C-2.72898976 10.57536732 -2.80491365 9.01008744 -3.03515625 5.97265625 C-3.1125 5.08320312 -3.18984375 4.19375 -3.26953125 3.27734375 C-3.2746875 2.55804688 -3.27984375 1.83875 -3.28515625 1.09765625 C-2.28515625 0.09765625 -2.28515625 0.09765625 0 0 Z " fill="#FFEFE6" transform="translate(69.28515625,35.90234375)"/>
<path d="M0 0 C0.95003906 -0.01417969 1.90007812 -0.02835938 2.87890625 -0.04296875 C5.4375 0.1875 5.4375 0.1875 8.4375 2.1875 C8.1075 4.4975 7.7775 6.8075 7.4375 9.1875 C6.4475 8.8575 5.4575 8.5275 4.4375 8.1875 C4.1075 8.8475 3.7775 9.5075 3.4375 10.1875 C0.1375 10.1875 -3.1625 10.1875 -6.5625 10.1875 C-6.8925 9.1975 -7.2225 8.2075 -7.5625 7.1875 C-8.5525 6.8575 -9.5425 6.5275 -10.5625 6.1875 C-10.2325 4.5375 -9.9025 2.8875 -9.5625 1.1875 C-6.32974299 0.23219355 -3.36574361 0.02289622 0 0 Z " fill="#FFF9F6" transform="translate(62.5625,62.8125)"/>
<path d="M0 0 C0.99 0 1.98 0 3 0 C3.27573092 2.10094974 3.51978976 4.20607635 3.75 6.3125 C3.88921875 7.48425781 4.0284375 8.65601563 4.171875 9.86328125 C4 13 4 13 2.015625 14.91796875 C1.35046875 15.27503906 0.6853125 15.63210937 0 16 C1.65 16.33 3.3 16.66 5 17 C5 21 5 21 3.5390625 22.484375 C2.90742187 22.90203125 2.27578125 23.3196875 1.625 23.75 C0.99851562 24.17796875 0.37203125 24.6059375 -0.2734375 25.046875 C-2 26 -2 26 -4 26 C-4.05384521 23.70858714 -4.09272087 21.41681812 -4.125 19.125 C-4.14820312 17.84882812 -4.17140625 16.57265625 -4.1953125 15.2578125 C-4 12 -4 12 -2 10 C-1.5769311 7.83000806 -1.5769311 7.83000806 -1.4375 5.4375 C-1.09722222 1.09722222 -1.09722222 1.09722222 0 0 Z " fill="#FFEEE4" transform="translate(30,21)"/>
<path d="M0 0 C0 7.59 0 15.18 0 23 C-3.3 22.67 -6.6 22.34 -10 22 C-8 18 -8 18 -6.375 15.8125 C-4.91939929 12.8351349 -4.90967403 11.65211532 -5.0625 8.4375 C-5.22794118 4.30147059 -5.22794118 4.30147059 -3.0625 1.4375 C-1 0 -1 0 0 0 Z " fill="#FF6709" transform="translate(86,33)"/>
<path d="M0 0 C2.97 0 5.94 0 9 0 C10.38686891 4.16060672 10.13675846 7.77339471 9 12 C6.5625 14.5625 6.5625 14.5625 4 16 C3.34 16 2.68 16 2 16 C2.3125 14.125 2.3125 14.125 3 12 C3.99 11.34 4.98 10.68 6 10 C6.72965366 7.43717258 6.72965366 7.43717258 7 5 C6.21625 4.9175 5.4325 4.835 4.625 4.75 C3.75875 4.5025 2.8925 4.255 2 4 C1.34 2.68 0.68 1.36 0 0 Z " fill="#FF680A" transform="translate(47,36)"/>
<path d="M0 0 C1.37478516 0.01740234 1.37478516 0.01740234 2.77734375 0.03515625 C3.69644531 0.04417969 4.61554688 0.05320313 5.5625 0.0625 C6.27277344 0.07410156 6.98304687 0.08570313 7.71484375 0.09765625 C6.3828125 2.08203125 6.3828125 2.08203125 4.71484375 4.09765625 C2.02734375 4.34765625 2.02734375 4.34765625 -0.28515625 4.09765625 C0.91527138 8.59925985 1.93736712 10.45342261 5.71484375 13.09765625 C5.71484375 14.08765625 5.71484375 15.07765625 5.71484375 16.09765625 C2.33375063 14.90970461 -0.04580186 13.93332597 -2.28515625 11.09765625 C-2.83203125 8.65234375 -2.83203125 8.65234375 -3.03515625 5.97265625 C-3.1125 5.08320312 -3.18984375 4.19375 -3.26953125 3.27734375 C-3.27726562 2.19839844 -3.27726562 2.19839844 -3.28515625 1.09765625 C-2.28515625 0.09765625 -2.28515625 0.09765625 0 0 Z " fill="#FF6A0E" transform="translate(69.28515625,35.90234375)"/>
<path d="M0 0 C1.45823212 -0.0270043 2.91660675 -0.04639787 4.375 -0.0625 C5.18710937 -0.07410156 5.99921875 -0.08570313 6.8359375 -0.09765625 C9 0 9 0 11 1 C11 1.99 11 2.98 11 4 C10.01 4 9.02 4 8 4 C7.566875 5.4540625 7.566875 5.4540625 7.125 6.9375 C6 10 6 10 4 11 C3.34 8.69 2.68 6.38 2 4 C1.01 4 0.02 4 -1 4 C-0.67 2.68 -0.34 1.36 0 0 Z " fill="#FF690C" transform="translate(57,49)"/>
<path d="M0 0 C0.94875 0.37125 1.8975 0.7425 2.875 1.125 C3.57625 1.41375 4.2775 1.7025 5 2 C4.67 3.65 4.34 5.3 4 7 C3.566875 6.34 3.13375 5.68 2.6875 5 C-1.5185075 1.8699479 -5.92516156 2.5609005 -11 3 C-12.34771484 3.31904297 -12.34771484 3.31904297 -13.72265625 3.64453125 C-14.84994141 3.82048828 -14.84994141 3.82048828 -16 4 C-16.66 3.34 -17.32 2.68 -18 2 C-16.13365525 1.26916597 -14.25637896 0.56621222 -12.375 -0.125 C-11.33085938 -0.51945312 -10.28671875 -0.91390625 -9.2109375 -1.3203125 C-5.39656003 -2.12773547 -3.54176161 -1.51221282 0 0 Z " fill="#FF7925" transform="translate(68,61)"/>
<path d="M0 0 C-0.55876839 3.53631503 -1.65972661 4.91895128 -4.4375 7.125 C-6.39564974 8.70296618 -8.21849868 10.21849868 -10 12 C-10.5212766 6.78723404 -10.5212766 6.78723404 -10 4 C-6.446955 0.76995909 -4.83406485 0 0 0 Z " fill="#FFF9F6" transform="translate(34,47)"/>
<path d="M0 0 C0 1.32 0 2.64 0 4 C-2.50484597 6.41847197 -3.46013806 7 -7 7 C-9 4 -9 4 -8.75 1.875 C-7.07322543 -2.31693642 -3.68597999 -0.72117 0 0 Z " fill="#FF6C10" transform="translate(49,23)"/>
<path d="M0 0 C0 4 0 4 -1.4609375 5.484375 C-2.09257813 5.90203125 -2.72421875 6.3196875 -3.375 6.75 C-4.00148438 7.17796875 -4.62796875 7.6059375 -5.2734375 8.046875 C-7 9 -7 9 -9 9 C-9 6.69 -9 4.38 -9 2 C-5.86501708 0.14223235 -3.62528568 -0.20140476 0 0 Z " fill="#FFF6F1" transform="translate(35,38)"/>
<path d="M0 0 C0 4.29 0 8.58 0 13 C-1.32 13 -2.64 13 -4 13 C-4 9.04 -4 5.08 -4 1 C-2 0 -2 0 0 0 Z " fill="#FFF2EA" transform="translate(29,58)"/>
<path d="M0 0 C4.70588235 0.70588235 4.70588235 0.70588235 6 2 C6.04080783 3.99958364 6.04254356 6.00045254 6 8 C1.73173127 8 1.06117568 7.62386487 -2 5 C-1.125 1.125 -1.125 1.125 0 0 Z " fill="#FF6C11" transform="translate(76,21)"/>
<path d="M0 0 C-0.57344937 2.86724686 -0.8614515 3.8614515 -3 6 C-3.99 6 -4.98 6 -6 6 C-6.33 4.02 -6.66 2.04 -7 0 C-3.86650268 -1.04449911 -3.01031744 -0.93423645 0 0 Z " fill="#FFF1E8" transform="translate(35,80)"/>
<path d="M0 0 C3.37705625 0.53725895 6.696686 1.11064623 10 2 C10 3.65 10 5.3 10 7 C6.4124787 5.66749209 3.1635377 4.169283 0 2 C0 1.34 0 0.68 0 0 Z " fill="#FF751F" transform="translate(76,57)"/>
<path d="M0 0 C1.32 0 2.64 0 4 0 C4 1.98 4 3.96 4 6 C2.0625 6.5625 2.0625 6.5625 0 7 C-1 6 -1 6 -1.125 3.5 C-1 1 -1 1 0 0 Z " fill="#FFEFE5" transform="translate(61,79)"/>
<path d="M0 0 C0.99 0 1.98 0 3 0 C3.33 2.64 3.66 5.28 4 8 C2.68 8 1.36 8 0 8 C-0.38063221 5.6739143 -0.71269945 3.33944736 -1 1 C-0.67 0.67 -0.34 0.34 0 0 Z " fill="#FFEFE5" transform="translate(68,78)"/>
<path d="M0 0 C1.32 0.33 2.64 0.66 4 1 C4.33 2.98 4.66 4.96 5 7 C4.01 7.66 3.02 8.32 2 9 C-0.29013653 5.5647952 -0.17842973 4.014669 0 0 Z " fill="#FFEFE6" transform="translate(74,76)"/>
<path d="M0 0 C0.99 0 1.98 0 3 0 C3.33 2.97 3.66 5.94 4 9 C2.68 8.34 1.36 7.68 0 7 C-0.8125 3.9375 -0.8125 3.9375 -1 1 C-0.67 0.67 -0.34 0.34 0 0 Z " fill="#FFF1E8" transform="translate(38,71)"/>
<path d="M0 0 C1.65 0 3.3 0 5 0 C5.33 1.98 5.66 3.96 6 6 C4.35 5.67 2.7 5.34 1 5 C0.67 3.35 0.34 1.7 0 0 Z " fill="#FFF4ED" transform="translate(52,80)"/>
<path d="M0 0 C1.32 0.66 2.64 1.32 4 2 C3.67 4.31 3.34 6.62 3 9 C2.34 8.67 1.68 8.34 1 8 C0.26924352 5.6859378 -0.40138258 3.35171131 -1 1 C-0.67 0.67 -0.34 0.34 0 0 Z " fill="#FFECE1" transform="translate(46,74)"/>
<path d="M0 0 C0.99 0.33 1.98 0.66 3 1 C3 1.99 3 2.98 3 4 C0.5 5.6875 0.5 5.6875 -2 7 C-2.33 5.35 -2.66 3.7 -3 2 C-2.01 1.34 -1.02 0.68 0 0 Z " fill="#FFF2EA" transform="translate(30,71)"/>
<path d="M0 0 C0 0.99 0 1.98 0 3 C-4.34285714 7 -4.34285714 7 -7 7 C-6.61402985 4.20171644 -6.19863427 3.1794116 -4.0625 1.25 C-2 0 -2 0 0 0 Z " fill="#FF7824" transform="translate(56,45)"/>
<path d="M0 0 C2.9719385 1.12451727 5.33440687 2.22293791 8 4 C8 4.99 8 5.98 8 7 C4.66272214 5.82744291 2.22562513 4.81131596 0 2 C0 1.34 0 0.68 0 0 Z " fill="#FF7119" transform="translate(67,45)"/>
<path d="M0 0 C2.31 0.33 4.62 0.66 7 1 C6.67 1.99 6.34 2.98 6 4 C4.68 4 3.36 4 2 4 C1.34 2.68 0.68 1.36 0 0 Z " fill="#FF8133" transform="translate(65,29)"/>
</svg>
